	<svg class="hidden" >
											<!--Top-sidebar-icon -->
		<symbol id="back" fill="none" xmlns="http://www.w3.org/2000/svg" viewBox="0 0 11 18" width="11" height="18">
			<path d="M9.75 1.5L2.25 9L9.75 16.5" stroke="#C4C4C4" stroke-width="2"/>
		</symbol>

		<symbol id="forwards" fill="none" xmlns="http://www.w3.org/2000/svg" viewBox="0 0 11 18" width="11" height="18">
			<path d="M1.25 1.5L8.75 9L1.25 16.5" stroke="#C4C4C4" stroke-width="2"/>
		</symbol>

		<symbol id="equalizer" fill="none" xmlns="http://www.w3.org/2000/svg"  viewBox="0 0 31 31" width="31" height="31">
			<rect width="31" height="31" rx="12" fill="#B43EC8"/>
			<rect x="10.1087" y="8.08868" width="2.02174" height="13.4783" fill="white"/>
			<rect x="14.1521" y="14.1519" width="2.02174" height="7.41305" fill="white"/>
			<rect x="18.1956" y="12.1316" width="2.02174" height="9.43478" fill="white"/>
		</symbol>
														<!-- Main -->
		<symbol id="frame" width="20" height="20" fill="inherit" xmlns="http://www.w3.org/2000/svg" viewBox="0 0 5 21" >
			<circle cx="2.06161" cy="2.06161" r="2.06161" transform="matrix(-1 0 0 1 4.12334 0)" fill="#D9D9D9"/>
			<circle cx="2.06161" cy="2.06161" r="2.06161" transform="matrix(-1 0 0 1 4.12334 8.24644)" fill="#D9D9D9"/>
			<circle cx="2.06161" cy="2.06161" r="2.06161" transform="matrix(-1 0 0 1 4.12334 16.4929)" fill="#D9D9D9"/>
		</symbol>

		<symbol id="ellipse" width="5" height="5" fill="inherit" xmlns="http://www.w3.org/2000/svg" viewBox="0 0 2 2">
			<circle cx="1" cy="1" r="1" fill="#D9D9D9"/>
		</symbol>

    <symbol
      id="add-to-my-music"
			width="20" 
      height="20"
      fill="currentColor"
      viewBox="0 0 20 20"
      xmlns="http://www.w3.org/2000/svg"
    >
      <path
        fill-rule="evenodd"
        d="M10 3a.75.75 0 0 1 .75.75v5.5h5.5a.75.75 0 0 1 0 1.5h-5.5v5.5a.75.75 0 0 1-1.5 0v-5.5h-5.5a.75.75 0 0 1 0-1.5h5.5v-5.5A.75.75 0 0 1 10 3Z"
        clip-rule="evenodd"
      >
      </path>
    </symbol>

    <symbol
      id="show-similar"
      width="20" 
      height="20"
      fill="inherit"
      xmlns="http://www.w3.org/2000/svg"
      viewBox="0 0 24 24"
    >
      <g fill="currentColor">
        <path
          clip-rule="evenodd"
          d="M14 10.44a7.83 7.83 0 0 1-1.43 2.13c-.6.6-1.36 1.07-2.13 1.43.77.37 1.54.84 2.13 1.44.6.6 1.07 1.36 1.44 2.12.36-.76.83-1.53 1.43-2.12.6-.6 1.36-1.07 2.12-1.44a7.85 7.85 0 0 1-2.12-1.43A7.84 7.84 0 0 1 14 10.44zm-.94-2.46a9.05 9.05 0 0 1-1.76 3.32 9.05 9.05 0 0 1-3.32 1.76 21.78 21.78 0 0 1-1.7.5c-.38.1-.38.79 0 .89a31.86 31.86 0 0 1 1.7.5 9.05 9.05 0 0 1 3.32 1.76 9.04 9.04 0 0 1 1.76 3.31 20.87 20.87 0 0 1 .5 1.7c.1.37.79.37.89 0a24.88 24.88 0 0 1 .5-1.7c.44-1.28 1.02-2.57 1.76-3.31s2.03-1.32 3.31-1.76a20.87 20.87 0 0 1 1.7-.5c.37-.1.37-.79 0-.89a25.62 25.62 0 0 1-1.7-.5 9.04 9.04 0 0 1-3.31-1.76 9.05 9.05 0 0 1-1.76-3.32 21.2 21.2 0 0 1-.5-1.7c-.1-.38-.79-.38-.89 0a24.82 24.82 0 0 1-.5 1.7z"
          fill-rule="evenodd"
        ></path>
        <path
          d="M6.43 2.32a.47.47 0 0 0-.9 0l-.52 1.56c-.17.53-.6.96-1.13 1.13l-1.56.52a.47.47 0 0 0 0 .9l1.55.51c.54.18.96.6 1.14 1.15l.52 1.58c.15.43.75.43.9 0l.52-1.58c.17-.54.6-.97 1.14-1.14l1.58-.52a.47.47 0 0 0 0-.9L8.1 5.01a1.8 1.8 0 0 1-1.15-1.14z"
        ></path>
      </g>
    </symbol>

												<!-- Player-icon -->
		<symbol id="prev" fill="inherit" xmlns="http://www.w3.org/2000/svg" viewBox="0 0 30 30">
			<path
				d="M11.3258 15.8437C10.7083 15.4507 10.7083 14.5493 11.3258 14.1564L22.2131 7.22802C22.8789 6.80438 23.75 7.2826 23.75 8.07169V21.9283C23.75 22.7174 22.8788 23.1956 22.2131 22.772L11.3258 15.8437Z" />
			<rect width="2.5" height="17.5" rx="1" transform="matrix(-1 0 0 1 8.75 6.25)" />
		</symbol>

		<symbol id="pause" fill="inherit" xmlns="http://www.w3.org/2000/svg" viewBox="0 0 30 30">
			<rect x="5" y="3.75" width="7.5" height="22.5" rx="2" />
			<rect x="17.5" y="3.75" width="7.5" height="22.5" rx="2" />
		</symbol>

		<symbol id="play" fill="inherit" xmlns="http://www.w3.org/2000/svg" viewBox="0 0 32 32">
			<path
				d="M26.78,13.45,11.58,4A3,3,0,0,0,7,6.59V25.41a3,3,0,0,0,3,3A3,3,0,0,0,11.58,28l15.2-9.41a3,3,0,0,0,0-5.1Z" />
		</symbol>

		<symbol id="next" fill="inherit" xmlns="http://www.w3.org/2000/svg" viewBox="0 0 30 30">
			<path
				d="M18.6742 15.8437C19.2917 15.4507 19.2917 14.5493 18.6742 14.1564L7.78687 7.22802C7.12115 6.80438 6.25 7.2826 6.25 8.07169V21.9283C6.25 22.7174 7.12115 23.1956 7.78688 22.772L18.6742 15.8437Z" />
			<rect x="21.25" y="6.25" width="2.5" height="17.5" rx="1" />
		</symbol>

		<symbol id="volume" fill="inherit" stroke="inherit" xmlns="http://www.w3.org/2000/svg"  viewBox="0 0 20 20">
			<path
				d="M10.9188 2.79614C11.5806 2.32337 12.5 2.7965 12.5 3.60987V16.3902C12.5 17.2035 11.5806 17.6767 10.9188 17.2039L6.66667 14.1667H4.5C3.39543 14.1667 2.5 13.2712 2.5 12.1667V7.83335C2.5 6.72878 3.39543 5.83335 4.5 5.83335H6.66667L10.9188 2.79614Z" />
			<path
				d="M14.9949 14.0878C16.0289 13.0352 16.6667 11.5921 16.6667 10C16.6667 8.40123 16.0235 6.95268 14.9818 5.89899" stroke-width="2" />
		</symbol>

		<symbol id="like" fill="inherit" stroke="inherit" xmlns="http://www.w3.org/2000/svg" viewBox="0 0 19 17">
			<path
				d="M4.15465 9.68115L9.36911 14.5796L9.36913 14.5796C9.46753 14.672 9.51673 14.7183 9.56716 14.7473C9.7216 14.8362 9.9117 14.8362 10.0661 14.7473C10.1166 14.7183 10.1658 14.672 10.2642 14.5796L10.2642 14.5796L15.4786 9.68116C16.9458 8.30294 17.1239 6.03495 15.89 4.44455L15.658 4.14551C14.1819 2.24294 11.2189 2.56201 10.1816 4.73524C10.0351 5.04222 9.59816 5.04222 9.45165 4.73524C8.41443 2.56201 5.45144 2.24293 3.97531 4.14551L3.74329 4.44455C2.50936 6.03495 2.68752 8.30294 4.15465 9.68115Z"/>
			<path
				d="M8.67305 15.2977L8.67307 15.2978L8.68444 15.3084L8.68445 15.3085C8.69008 15.3137 8.69658 15.3199 8.70389 15.3269C8.77164 15.3914 8.90885 15.5222 9.06819 15.6139C9.53151 15.8807 10.1018 15.8807 10.5651 15.6139C10.7244 15.5222 10.8617 15.3914 10.9294 15.3269C10.9367 15.3199 10.9432 15.3137 10.9488 15.3085L10.9489 15.3084L10.9602 15.2978L10.9602 15.2977L16.1633 10.41C18.0064 8.67863 18.2302 5.82948 16.6801 3.83155L16.4481 3.53251C14.7296 1.31759 11.4718 1.40277 9.81665 3.44968C8.16151 1.40277 4.90369 1.31759 3.18522 3.53251L2.95321 3.83155L3.69765 4.40914L2.95321 3.83155C1.40309 5.82948 1.6269 8.67863 3.46998 10.41L8.67305 15.2977Z" stroke-width="2"/>
		</symbol>

		<symbol id="shuffle" fill="inherit" stroke="inherit" xmlns="http://www.w3.org/2000/svg" viewBox="0 0 20 20">
			<path d="M13.3335 15C12.0192 15 10.7889 14.4855 9.8761 13.6122" stroke-width="2"/>
			<path d="M5.96243 6.70996C4.82411 5.6334 3.29712 5 1.66681 5" stroke-width="2"/>
			<path
				d="M18.6434 16.0112C19.27 15.6196 19.27 14.7069 18.6434 14.3152L14.8635 11.9528C14.1974 11.5365 13.3335 12.0154 13.3335 12.8008V17.5256C13.3335 18.3111 14.1974 18.7899 14.8635 18.3736L18.6434 16.0112Z"
				/>
			<path
				d="M13.3335 5V5C11.315 5 9.49444 6.21369 8.71809 8.07692L7.43604 11.1538C6.4656 13.4829 4.18994 15 1.66681 15V15"
				stroke-width="2"/>
			<path
				d="M17.81 6.01123C18.4367 5.61956 18.4367 4.7069 17.81 4.31523L14.0301 1.95281C13.3641 1.53653 12.5001 2.01537 12.5001 2.80081V7.52565C12.5001 8.31108 13.3641 8.78993 14.0301 8.37365L17.81 6.01123Z"
				/>
		</symbol>

		<symbol id="repeat" fill="inherit" stroke="inherit" xmlns="http://www.w3.org/2000/svg" viewBox="0 0 20 20">
			<path
				d="M17.8101 5.17791C18.4368 4.78625 18.4368 3.87358 17.8101 3.48192L14.0302 1.1195C13.3642 0.703218 12.5002 1.18206 12.5002 1.9675V6.69233C12.5002 7.47777 13.3642 7.95661 14.0302 7.54033L17.8101 5.17791Z"/>
			<path
				d="M2.28483 16.0112C1.65816 15.6196 1.65816 14.7069 2.28483 14.3152L6.0647 11.9528C6.73074 11.5365 7.5947 12.0154 7.5947 12.8008V17.5256C7.5947 18.3111 6.73075 18.7899 6.0647 18.3736L2.28483 16.0112Z"/>
			<path d="M3.33358 9.16666V9.16666C3.33358 6.40523 5.57216 4.16666 8.33358 4.16666V4.16666H12.5002" stroke-width="2"/>
			<path d="M15.8336 10V10C15.8336 12.7614 13.595 15 10.8336 15V15H6.66691" stroke-width="2"/>
		</symbol>


	</svg>